{
  "accessors": [
    {
      "bufferView": 0,
      "componentType": 5126,
      "count": 4664,
      "max": [
        86.91301727294922,
        28.89118766784668,
        173.19618225097656
      ],
      "min": [
        -86.91290283203125,
        -30.654199600219727,
        -73.13980102539063
      ],
      "type": "VEC3"
    },
    {
      "bufferView": 1,
      "componentType": 5125,
      "count": 13913,
      "type": "SCALAR"
    },
    {
      "bufferView": 2,
      "componentType": 5126,
      "count": 4664,
      "type": "VEC3"
    },
    {
      "bufferView": 3,
      "componentType": 5126,
      "count": 4664,
      "type": "VEC4"
    },
    {
      "bufferView": 4,
      "componentType": 5126,
      "count": 4664,
      "type": "VEC2"
    }
  ],
  "asset": {
    "version": "2.0"
  },
  "bufferViews": [
    {
      "buffer": 0,
      "byteLength": 55968,
      "target": 34962
    },
    {
      "buffer": 1,
      "byteLength": 55652,
      "target": 34963
    },
    {
      "buffer": 2,
      "byteLength": 55968,
      "target": 34962
    },
    {
      "buffer": 3,
      "byteLength": 74624,
      "target": 34962
    },
    {
      "buffer": 4,
      "byteLength": 37312,
      "target": 34962
    }
  ],
  "buffers": [
    {
      "byteLength": 55968,
      "uri": "data:application/octet-stream;base64,"
    },
    {
      "byteLength": 55652,
      "uri": "data:application/octet-stream;base64,"
    },
    {
      "byteLength": 55968,
      "uri": "data:application/octet-stream;base64,"
    },
    {
      "byteLength": 74624,
      "uri": "data:application/octet-stream;base64,"
    },
    {
      "byteLength": 37312,
      "uri": "data:application/octet-stream;base64,"
    }
  ],
  "materials": [
    {
      "doubleSided": true,
      "name": "Padlock",
      "pbrMetallicRoughness": {
        "baseColorFactor": [
          0.800000011920929,
          0.800000011920929,
          0.800000011920929,
          1.0
        ]
      }
    }
  ],
  "meshes": [
    {
      "name": "Padlock_Padlock_0",
      "primitives": [
        {
          "attributes": {
            "NORMAL": 2,
            "POSITION": 0,
            "TANGENT": 3,
            "TEXCOORD_0": 4
          },
          "indices": 1,
          "material": 0,
          "mode": 5
        }
      ]
    }
  ],
  "nodes": [
    {
      "mesh": 0,
      "name": "Padlock_Padlock_0"
    },
    {
      "children": [
        0
      ],
      "name": "Padlock",
      "rotation": [
        -0.7071067811865475,
        0.0,
        0.0,
        0.7071067811865476
      ],
      "scale": [
        1.0,
        1.0,
        1.0
      ],
      "translation": [
        0.0,
        0.0,
        0.0
      ]
    },
    {
      "children": [
        1
      ],
      "name": "RootNode"
    },
    {
      "children": [
        2
      ],
      "name": "31d2548aa2864ecf9a407a3c863f699d.fbx",
      "rotation": [
        1.1102230246251565e-16,
        0.0,
        0.0,
        1.0
      ],
      "scale": [
        0.009999999776482582,
        0.009999999776482582,
        0.009999999776482582
      ],
      "translation": [
        0.0,
        0.0,
        0.0
      ]
    }
  ],
  "scene": 0,
  "scenes": [
    {
      "nodes": [
        3
      ]
    }
  ]
}
